# xmcd CD database file
#
# Track frame offsets:
#	150
#	13702
#	33090
#	51644
#	66516
#	81956
#	103582
#	119427
#	137219
#	153078
#	169003
#	186296
#	202991
#	216677
#	232515
#	247487
#	260745
#	273165
#
# Disc length: 3832 seconds
#
# Revision: 0
# Processed by: cddbd v1.5.2PL0 Copyright (c) Steve Scherf et al.
# Submitted via: CDex 1.51
#
DISCID=0d0ef612
DTITLE=Various Artist - FB Workshop 2007
DYEAR=2007
DGENRE=Country
TTITLE0=I Fooled Around And Fell In Love - Elvin Bishop
TTITLE1=Bella Itallia - Engelbert Humperdink
TTITLE2=Your Love Is King - Will Young
TTITLE3=There's No Getting Over Me - Ronnie Milsap
TTITLE4=More You Do It, The - Natalie Cole
TTITLE5=I Don't Feel Like Dancing - Scissors Sisters, The
TTITLE6=Dream Lover - Lobo
TTITLE7=Freeze Frame - J Geils Band
TTITLE8=Holding Back The Ocean - Rockie Lynne
TTITLE9=It's Up To You - Barbra Streisand
TTITLE10=Keep Your Hands To Yourself - Ethan Allen
TTITLE11=Red Hot Rock 'n' Roller - Dave Sheriff
TTITLE12=Patricia - Metizzo
TTITLE13=Like Red On A Rose - Alan Jackson
TTITLE14=I Will Survive - Gloria Gaynor
TTITLE15=That Cat Is High - Manhattan Transfer
TTITLE16=I Walk The Line (revisted, with Johnny Cash) - Rodney Crowell
TTITLE17=Walking Backwards - Brandon Sandefur
EXTD=YEAR: 2007
EXTT0=
EXTT1=
EXTT2=
EXTT3=
EXTT4=
EXTT5=
EXTT6=
EXTT7=
EXTT8=
EXTT9=
EXTT10=
EXTT11=
EXTT12=
EXTT13=
EXTT14=
EXTT15=
EXTT16=
EXTT17=
PLAYORDER=
